<svg width="64" height="64" viewBox="0 0 24 24" xmlns="http://www.w3.org/2000/svg"><rect x="0" y="0" width="24" height="24" rx="8" fill="none"/><svg xmlns="http://www.w3.org/2000/svg" viewBox="0 0 24 24" fill="#000000" x="0" y="0" width="24" height="24"><path fill="#000000" d="M5 19h1.4l8.625-8.625l-1.4-1.4L5 17.6V19ZM19.3 8.925l-4.25-4.2l1.4-1.4q.575-.575 1.413-.575t1.412.575l1.4 1.4q.575.575.6 1.388t-.55 1.387L19.3 8.925ZM17.85 10.4L7.25 21H3v-4.25l10.6-10.6l4.25 4.25Zm-3.525-.725l-.7-.7l1.4 1.4l-.7-.7Z"/></svg></svg>